<mxfile host="app.diagrams.net" modified="2021-04-06T21:02:21.193Z" agent="5.0 (Windows NT 10.0; Win64; x64) AppleWebKit/537.36 (KHTML, like Gecko) Chrome/87.0.4280.141 Safari/537.36 OPR/73.0.3856.424" etag="OgwSNgvYvaJ2WwAHtrlh" version="14.5.8" type="github">
  <diagram id="lfvM4dAvMaUUZN6GYLOI" name="Page-1">
    <mxGraphModel dx="873" dy="483" grid="1" gridSize="10" guides="1" tooltips="1" connect="1" arrows="1" fold="1" page="1" pageScale="1" pageWidth="827" pageHeight="1169" math="0" shadow="0">
      <root>
        <mxCell id="0" />
        <mxCell id="1" parent="0" />
        <mxCell id="KfkO0Wg_wslQLYwwtrvP-5" style="edgeStyle=orthogonalEdgeStyle;rounded=0;orthogonalLoop=1;jettySize=auto;html=1;" edge="1" parent="1" source="KfkO0Wg_wslQLYwwtrvP-1" target="KfkO0Wg_wslQLYwwtrvP-3">
          <mxGeometry relative="1" as="geometry" />
        </mxCell>
        <mxCell id="KfkO0Wg_wslQLYwwtrvP-1" value="BaÅŸla&lt;br&gt;" style="ellipse;whiteSpace=wrap;html=1;" vertex="1" parent="1">
          <mxGeometry x="400" y="10" width="120" height="80" as="geometry" />
        </mxCell>
        <mxCell id="KfkO0Wg_wslQLYwwtrvP-6" style="edgeStyle=orthogonalEdgeStyle;rounded=0;orthogonalLoop=1;jettySize=auto;html=1;" edge="1" parent="1" source="KfkO0Wg_wslQLYwwtrvP-8">
          <mxGeometry relative="1" as="geometry">
            <mxPoint x="460" y="270" as="targetPoint" />
          </mxGeometry>
        </mxCell>
        <mxCell id="KfkO0Wg_wslQLYwwtrvP-3" value="sayi1" style="shape=parallelogram;perimeter=parallelogramPerimeter;whiteSpace=wrap;html=1;fixedSize=1;" vertex="1" parent="1">
          <mxGeometry x="400" y="110" width="120" height="60" as="geometry" />
        </mxCell>
        <mxCell id="KfkO0Wg_wslQLYwwtrvP-11" style="edgeStyle=orthogonalEdgeStyle;rounded=0;orthogonalLoop=1;jettySize=auto;html=1;entryX=0.5;entryY=0;entryDx=0;entryDy=0;" edge="1" parent="1" source="KfkO0Wg_wslQLYwwtrvP-8" target="KfkO0Wg_wslQLYwwtrvP-9">
          <mxGeometry relative="1" as="geometry" />
        </mxCell>
        <mxCell id="KfkO0Wg_wslQLYwwtrvP-14" style="edgeStyle=orthogonalEdgeStyle;rounded=0;orthogonalLoop=1;jettySize=auto;html=1;" edge="1" parent="1" source="KfkO0Wg_wslQLYwwtrvP-9" target="KfkO0Wg_wslQLYwwtrvP-13">
          <mxGeometry relative="1" as="geometry" />
        </mxCell>
        <mxCell id="KfkO0Wg_wslQLYwwtrvP-9" value="sayi1 + sayi2" style="shape=document;whiteSpace=wrap;html=1;boundedLbl=1;" vertex="1" parent="1">
          <mxGeometry x="400" y="290" width="120" height="80" as="geometry" />
        </mxCell>
        <mxCell id="KfkO0Wg_wslQLYwwtrvP-8" value="sayi2" style="shape=parallelogram;perimeter=parallelogramPerimeter;whiteSpace=wrap;html=1;fixedSize=1;" vertex="1" parent="1">
          <mxGeometry x="400" y="200" width="120" height="60" as="geometry" />
        </mxCell>
        <mxCell id="KfkO0Wg_wslQLYwwtrvP-12" style="edgeStyle=orthogonalEdgeStyle;rounded=0;orthogonalLoop=1;jettySize=auto;html=1;" edge="1" parent="1" source="KfkO0Wg_wslQLYwwtrvP-3" target="KfkO0Wg_wslQLYwwtrvP-8">
          <mxGeometry relative="1" as="geometry">
            <mxPoint x="460" y="270" as="targetPoint" />
            <mxPoint x="460" y="170" as="sourcePoint" />
          </mxGeometry>
        </mxCell>
        <mxCell id="KfkO0Wg_wslQLYwwtrvP-13" value="Bitir" style="ellipse;whiteSpace=wrap;html=1;" vertex="1" parent="1">
          <mxGeometry x="400" y="390" width="120" height="80" as="geometry" />
        </mxCell>
      </root>
    </mxGraphModel>
  </diagram>
</mxfile>
